<?xml version="1.0" encoding="UTF-8"?>
<svg width="449px" height="449px" viewBox="0 0 449 449" version="1.1" xmlns="http://www.w3.org/2000/svg" xmlns:xlink="http://www.w3.org/1999/xlink">
    <!-- Generator: Sketch 54.1 (76490) - https://sketchapp.com -->
    <title>Mask</title>
    <desc>Created with Sketch.</desc>
    <defs>
        <linearGradient x1="50%" y1="0%" x2="50%" y2="100%" id="linearGradient-1">
            <stop stop-color="#307954" offset="0%"></stop>
            <stop stop-color="#6ED3BB" offset="100%"></stop>
        </linearGradient>
        <path d="M224.175,109.175 C160.575,109.175 109.275,160.475 109.275,224.075 C109.275,287.675 160.575,338.975 224.175,338.975 C287.775,338.975 339.075,287.675 339.075,224.075 C339.075,160.475 287.775,109.175 224.175,109.175 Z M224.175,298.775 C183.075,298.775 149.475,265.275 149.475,224.075 C149.475,182.875 182.975,149.375 224.175,149.375 C265.375,149.375 298.875,182.875 298.875,224.075 C298.875,265.275 265.275,298.775 224.175,298.775 L224.175,298.775 Z M370.575,104.475 C370.575,119.375 358.575,131.275 343.775,131.275 C328.875,131.275 316.975,119.275 316.975,104.475 C316.975,89.675 328.975,77.675 343.775,77.675 C358.575,77.675 370.575,89.675 370.575,104.475 Z M446.675,131.675 C444.975,95.775 436.775,63.975 410.475,37.775 C384.275,11.575 352.475,3.375 316.575,1.575 C279.575,-0.525 168.675,-0.525 131.675,1.575 C95.875,3.275 64.075,11.475 37.775,37.675 C11.475,63.875 3.375,95.675 1.575,131.575 C-0.525,168.575 -0.525,279.475 1.575,316.475 C3.275,352.375 11.475,384.175 37.775,410.375 C64.075,436.575 95.775,444.775 131.675,446.575 C168.675,448.675 279.575,448.675 316.575,446.575 C352.475,444.875 384.275,436.675 410.475,410.375 C436.675,384.175 444.875,352.375 446.675,316.475 C448.775,279.475 448.775,168.675 446.675,131.675 Z M398.875,356.175 C391.075,375.775 375.975,390.875 356.275,398.775 C326.775,410.475 256.775,407.775 224.175,407.775 C191.575,407.775 121.475,410.375 92.075,398.775 C72.475,390.975 57.375,375.875 49.475,356.175 C37.775,326.675 40.475,256.675 40.475,224.075 C40.475,191.475 37.875,121.375 49.475,91.975 C57.275,72.375 72.375,57.275 92.075,49.375 C121.575,37.675 191.575,40.375 224.175,40.375 C256.775,40.375 326.875,37.775 356.275,49.375 C375.875,57.175 390.975,72.275 398.875,91.975 C410.575,121.475 407.875,191.475 407.875,224.075 C407.875,256.675 410.575,326.775 398.875,356.175 Z" id="path-2"></path>
    </defs>
    <g id="Symbols" stroke="none" stroke-width="1" fill="none" fill-rule="evenodd">
        <mask id="mask-3" fill="white">
            <use xlink:href="#path-2"></use>
        </mask>
        <use id="Mask" fill="url(#linearGradient-1)" fill-rule="nonzero" xlink:href="#path-2"></use>
    </g>
</svg>