<?xml version="1.0" encoding="utf-8"?>
<!-- Generator: Adobe Illustrator 23.0.1, SVG Export Plug-In . SVG Version: 6.00 Build 0)  -->
<svg version="1.1" xmlns="http://www.w3.org/2000/svg" xmlns:xlink="http://www.w3.org/1999/xlink" x="0px" y="0px"
	 viewBox="0 0 382.54 57.56" style="enable-background:new 0 0 382.54 57.56;" xml:space="preserve">
<style type="text/css">
	.st0{fill:#FFFFFF;}
</style>
<g id="Layer_2">
</g>
<g id="Layer_1">
	<g>
		<path class="st0" d="M23.13,7.84c-4.7,0-8.44,1.7-11.21,5.1c-2.77,3.4-4.16,8.52-4.16,15.37c0,6.8,1.4,11.91,4.19,15.33
			c2.8,3.42,6.52,5.14,11.17,5.14c2.25,0,4.46-0.47,6.62-1.41c2.17-0.94,4.09-2.48,5.76-4.63l5.72,4.47
			c-2.25,3.03-4.88,5.33-7.88,6.9c-3.01,1.57-6.34,2.35-10,2.35c-3.4,0-6.52-0.6-9.37-1.8c-2.85-1.2-5.31-2.98-7.39-5.33
			c-2.08-2.35-3.7-5.28-4.86-8.78C0.58,37.03,0,32.96,0,28.3c0-4.6,0.58-8.66,1.75-12.19c1.16-3.53,2.78-6.49,4.86-8.9
			C8.68,4.81,11.15,3.01,14,1.8C16.84,0.6,19.97,0,23.37,0c4.18,0,7.77,0.88,10.78,2.63c3.01,1.75,5.5,4.17,7.49,7.25l-5.72,4.55
			c-1.78-2.2-3.76-3.84-5.96-4.94C27.76,8.39,25.48,7.84,23.13,7.84z"/>
		<path class="st0" d="M55.94,13.72v41.63h-7.76V13.72H55.94z"/>
		<path class="st0" d="M88.13,30.11c0-3.45-0.69-5.95-2.08-7.49c-1.39-1.54-3.33-2.31-5.84-2.31c-3.71,0-6.61,2.43-8.7,7.29v27.76
			h-7.76V13.72h7.37v4c1.52-1.78,3.25-3.07,5.21-3.88c1.96-0.81,4.01-1.22,6.15-1.22c1.88,0,3.63,0.34,5.25,1.02
			c1.62,0.68,3.04,1.69,4.27,3.02c1.23,1.33,2.18,2.99,2.86,4.98c0.68,1.99,1.02,4.31,1.02,6.98v26.74h-7.76V30.11z"/>
		<path class="st0" d="M120.08,12.62c2.56,0,4.91,0.48,7.06,1.45c2.14,0.97,3.99,2.38,5.53,4.23c1.54,1.86,2.74,4.12,3.61,6.78
			c0.86,2.67,1.29,5.7,1.29,9.1c0,0.89-0.13,1.8-0.39,2.74h-27.05c0.26,3.92,1.36,6.94,3.31,9.06c1.94,2.12,4.46,3.17,7.56,3.17
			c1.78,0,3.42-0.35,4.92-1.06c1.5-0.71,2.77-1.66,3.82-2.86l4.94,4.39c-1.36,1.99-3.32,3.62-5.89,4.9
			c-2.57,1.28-5.32,1.92-8.25,1.92c-2.57,0-4.95-0.47-7.16-1.41c-2.2-0.94-4.1-2.33-5.7-4.16c-1.6-1.83-2.86-4.1-3.77-6.82
			c-0.92-2.72-1.38-5.88-1.38-9.49c0-3.61,0.42-6.78,1.25-9.53c0.84-2.74,2.02-5.03,3.57-6.86c1.54-1.83,3.4-3.21,5.57-4.16
			C115.07,13.09,117.47,12.62,120.08,12.62z M120.12,19.84c-2.78,0-5.01,0.93-6.69,2.78c-1.68,1.86-2.7,4.59-3.07,8.19h19.44
			c-0.37-3.61-1.39-6.34-3.07-8.19C125.05,20.77,122.85,19.84,120.12,19.84z"/>
		<path class="st0" d="M151.8,13.72v4c1.46-1.78,3.06-3.07,4.81-3.88c1.75-0.81,3.66-1.22,5.75-1.22c4.59,0,7.87,2.17,9.86,6.51
			c1.05-1.78,2.54-3.31,4.48-4.59c1.94-1.28,4.22-1.92,6.83-1.92c4.5,0,8.07,1.31,10.68,3.92c2.62,2.61,3.93,6.54,3.93,11.76v27.05
			h-7.76V30.11c0-3.55-0.58-6.08-1.73-7.57c-1.16-1.49-2.99-2.23-5.52-2.23c-2.21,0-3.95,0.8-5.24,2.39
			c-1.29,1.6-2.22,3.65-2.8,6.16v26.5h-7.76V30.11c0-3.55-0.56-6.08-1.69-7.57c-1.12-1.49-2.94-2.23-5.45-2.23
			c-1.83,0-3.36,0.6-4.59,1.8c-1.23,1.2-2.37,3.03-3.41,5.49v27.76h-7.76V13.72H151.8z"/>
		<path class="st0" d="M230.56,51.36c-1.25,1.62-2.82,2.88-4.7,3.76c-1.88,0.89-4.08,1.33-6.59,1.33c-1.78,0-3.54-0.29-5.29-0.86
			c-1.75-0.58-3.32-1.45-4.7-2.63c-1.39-1.18-2.51-2.65-3.37-4.43c-0.86-1.78-1.29-3.89-1.29-6.35c0-2.3,0.42-4.3,1.25-6
			c0.84-1.7,1.99-3.1,3.45-4.19c1.46-1.1,3.18-1.92,5.14-2.47c1.96-0.55,4.09-0.82,6.39-0.82c2.25,0,4.14,0.33,5.68,0.98
			c1.54,0.65,2.78,1.4,3.72,2.23c0-1.93-0.13-3.65-0.39-5.14c-0.26-1.49-0.72-2.73-1.37-3.72c-0.65-0.99-1.57-1.75-2.74-2.27
			c-1.18-0.52-2.65-0.78-4.43-0.78c-2.09,0-4,0.34-5.72,1.02c-1.73,0.68-3.09,1.39-4.08,2.12l-3.37-6.35c1.2-1.1,2.99-2.06,5.37-2.9
			c2.38-0.84,5.21-1.25,8.51-1.25c5.38,0,9.32,1.49,11.8,4.47c2.48,2.98,3.72,7.71,3.72,14.19v24.07h-6.98V51.36z M230.24,38.42
			c-0.89-1.05-2.18-1.89-3.88-2.55c-1.7-0.65-3.57-0.98-5.61-0.98c-2.82,0-5,0.59-6.55,1.76c-1.54,1.18-2.31,3.02-2.31,5.53
			c0,2.35,0.78,4.16,2.35,5.41c1.57,1.25,3.68,1.88,6.35,1.88c1.1,0,2.16-0.17,3.17-0.51c1.02-0.34,1.96-0.76,2.82-1.25
			c0.86-0.5,1.61-1.07,2.23-1.72c0.63-0.65,1.1-1.29,1.41-1.92V38.42z"/>
	</g>
	<path class="st0" d="M251.44,4.39h3.37l27.28,45.87V4.39h3.06v50.96h-3.37L254.5,9.57v45.79h-3.06V4.39z"/>
	<path class="st0" d="M293.63,34.34c0-13.49,6.43-18.66,15.29-18.66c8.86,0,15.29,5.17,15.29,18.66v2.82
		c0,13.49-6.43,18.66-15.29,18.66c-8.86,0-15.29-5.17-15.29-18.66V34.34z M321.46,34.34c0-11.92-5.02-16.07-12.54-16.07
		c-7.53,0-12.55,4.16-12.55,16.07v2.82c0,11.92,5.02,16.07,12.55,16.07c7.53,0,12.54-4.16,12.54-16.07V34.34z"/>
	<path class="st0" d="M332.67,17.72c1.41-0.71,5.41-1.88,9.8-1.88c2.9,0,5.41,0.47,7.13,0.94l-0.78,2.35
		c-1.65-0.39-3.76-0.71-6.35-0.71c-3.84,0-5.65,0.63-7.06,1.25v35.67h-2.74V17.72z"/>
	<path class="st0" d="M382.54,53.79c-3.21,1.02-6.82,2.04-12.94,2.04c-9.33,0-16.07-5.17-16.07-18.66v-2.82
		c0-13.49,7.06-18.66,16.86-18.66c4.08,0,7.29,0.78,9.41,1.72V0.47h2.74V53.79z M356.27,37.17c0,11.92,5.33,16.07,13.33,16.07
		c4.7,0,7.61-0.47,10.19-1.41v-31.6c-1.41-0.71-4.31-1.96-9.41-1.96c-8.47,0-14.11,4.16-14.11,16.07V37.17z"/>
</g>
</svg>
